<svg xmlns="http://www.w3.org/2000/svg" xmlns:xlink="http://www.w3.org/1999/xlink" xmlns:xodm="http://www.corel.com/coreldraw/odm/2003" xml:space="preserve" version="1.1" style="shape-rendering:geometricPrecision; text-rendering:geometricPrecision; image-rendering:optimizeQuality; fill-rule:evenodd; clip-rule:evenodd" viewBox="2741.9 4470.71 3011.65 2058.98"> <defs>  <style type="text/css">       .fil2 {fill:#F68F00}    .fil0 {fill:#1E1B19;fill-rule:nonzero}    .fil3 {fill:#828180;fill-rule:nonzero}    .fil1 {fill:#F68F10;fill-rule:nonzero}     </style> </defs> <g id="Layer_x0020_1">  <metadata id="CorelCorpID_0Corel-Layer"></metadata>  <path class="fil0" d="M2944.14 5987.48c-30.31,-2.93 -76.74,-3.98 -76.74,-51.06l0 -589.72 -125.5 0 0 601.37c0,64.13 36.74,161.19 173.72,153l28.52 -113.59zm354.7 12.25c-12.95,5.54 -44.43,10.18 -71.24,10.18 -65.68,0 -105.37,-26.91 -107.44,-65.69 -3.33,-61.58 82.21,-80.72 178.69,-69.19l0 124.69zm119.35 73.06l0 -307.15c0,-127.66 -71.24,-177.62 -198.94,-177.62 -72.14,0 -153.57,21.22 -195.23,38.79l30.45 99.98c35.14,-14.8 103.42,-32.37 150.57,-32.37 57.37,0 93.8,9.64 93.8,61.42l0 17.1c-159.13,-10.84 -305.39,33.89 -305.1,169.89 0.25,112.91 87.7,166.04 237.57,166.04 74.94,0 149.87,-16.65 186.89,-36.08zm453.12 26.85l0 -107.54 -236.92 0 236.88 -297.65 -0.06 -96.71 -376.3 0 0.06 105.36 220.14 0 -220.12 294.15 0 102.39 376.32 0zm208.94 -622.29c0,-37.93 -32.39,-72.64 -72.18,-72.64 -39.76,0 -72.14,34.71 -72.14,72.64 0,37.93 29.3,69.48 72.14,69.48 42.36,0 72.18,-31.54 72.18,-69.48zm-9.24 622.29l0 -501.9 -125.83 0 0 501.9 125.83 0zm459.85 -145.27c0,-100.84 -87.1,-132.05 -156.81,-155.99 -53.97,-18.54 -96.62,-35.09 -90.18,-68.54 3.65,-19.12 26.35,-38.27 81.62,-37.56 35.32,0.45 85.11,11.55 107.66,24.5l42.98 -92.69c-40.23,-20.36 -95.19,-36.08 -162.87,-36.08 -123.67,0 -197.85,64.2 -197.85,152.1 0,98.06 82.5,132.98 149.35,155.81 46.99,16.02 92.06,24.77 92.06,61.78 0,33.31 -33.18,46.24 -81.26,46.24 -38.27,0 -97.16,-16.64 -123.65,-32.37l-46.7 101.22c39.26,19.43 104.98,36.08 170.75,36.08 141.31,0 214.91,-61.06 214.91,-154.49z"></path>  <path class="fil1" d="M5277.34 6099.61l0 -345.06c0,-100.85 -66.63,-164.69 -176.72,-164.69 -74.94,0 -133.47,26.83 -164.93,50.9 -28.69,-25.91 -82.1,-50.9 -162.59,-50.9 -71.22,0 -122.1,15.74 -172.96,36.08l0 473.68 125.79 0 0 -386.88c17.59,-7.39 25.94,-12.03 54.59,-12.03 53.65,0 94.62,25.63 94.62,70.02l0 328.9 125.5 -0.02 0 -375.15c17.56,-15.74 36.15,-23.74 67.59,-23.74 50.9,0 82.34,27.79 82.34,76.8l0 322.11 126.78 0zm476.2 -28.31l0 -473.64 -125.48 0 0 394.99c-13.87,5.56 -33.63,11.09 -66,11.09 -55.5,0 -84.19,-24.96 -84.19,-78.63l0 -327.46 -125.81 0 0 324.69c0,129.5 72.16,185.02 210,185.02 77.73,0 148,-14.78 191.49,-36.06z"></path>  <path class="fil2" d="M5115.84 4985.81c30.16,-30.16 15.02,-94.24 -61.1,-170.32 -76.09,-76.11 -204.19,-115.65 -214.51,-105.3 -10.02,10 29.21,138.39 105.28,214.51 24.73,24.73 48.19,43 69.62,55.41 -24.03,-6.49 -53.74,-10.22 -89.01,-10.22 -107.64,0 -226.13,62.61 -226.13,77.23 0,14.15 118.49,77.23 226.13,77.23 34.94,0 64.49,-3.65 88.41,-10.05 -21.6,12.41 -45.23,30.79 -70.16,55.74 -76.09,76.09 -115.66,204.17 -105.32,214.51 10.04,10 138.43,-29.21 214.53,-105.3 24.73,-24.73 43,-48.18 55.39,-69.64 -6.49,24.05 -10.22,53.78 -10.22,89.04 0,107.63 62.65,226.13 77.23,226.13 14.16,0 77.23,-118.5 77.23,-226.13 0,-34.98 -3.63,-64.5 -10.04,-88.41 12.41,21.58 30.79,45.23 55.72,70.16 76.11,76.11 204.19,115.65 214.51,105.3 10.02,-10 -29.17,-138.41 -105.3,-214.51 -24.71,-24.73 -48.18,-43.02 -69.62,-55.41 24.03,6.49 53.76,10.22 89.06,10.22 107.59,0 226.13,-62.63 226.13,-77.23 0,-14.15 -118.54,-77.23 -226.13,-77.23 -35,0 -64.5,3.65 -88.44,10.06 21.57,-12.41 45.24,-30.79 70.18,-55.74 76.09,-76.1 115.61,-204.17 105.28,-214.51 -10.02,-10.02 -138.39,29.21 -214.51,105.3 -76.1,76.09 -91.26,140.18 -61.11,170.32 13.26,13.26 33.06,17.75 57.54,12.18 -21.62,13.42 -32.63,30.72 -32.63,49.62 0,18.74 10.85,35.92 32.09,49.3 -24.78,-5.81 -44.8,-1.35 -58.17,12.01 -13.26,13.24 -17.73,33.06 -12.14,57.54 -13.45,-21.62 -30.74,-32.63 -49.66,-32.63 -18.72,0 -35.9,10.83 -49.28,32.1 5.79,-24.78 1.33,-44.82 -12.03,-58.18 -13.22,-13.24 -33.02,-17.73 -57.54,-12.16 21.62,-13.42 32.63,-30.74 32.63,-49.62 0,-18.74 -10.81,-35.92 -32.09,-49.3 24.77,5.79 44.8,1.35 58.15,-12.02zm61 -125.3c42.64,0 77.23,-56.04 77.23,-163.65 0,-107.63 -62.62,-226.15 -77.23,-226.15 -14.15,0 -77.23,118.52 -77.23,226.15 0,107.6 34.59,163.65 77.23,163.65z"></path>  <path class="fil3" d="M3500.96 6356.04l25.17 0c5.33,0 8.83,2.5 10.5,7.5l2.67 12.67c3,-3.33 6.17,-6.39 9.44,-9.17 3.28,-2.78 6.78,-5.17 10.5,-7.17 3.72,-2 7.72,-3.61 12,-4.78 4.28,-1.17 8.94,-1.72 14.06,-1.72 10.78,0 19.67,2.89 26.61,8.72 6.94,5.83 12.11,13.61 15.56,23.28 2.67,-5.67 6,-10.56 10,-14.61 4,-4.06 8.39,-7.33 13.17,-9.89 4.78,-2.56 9.89,-4.44 15.28,-5.67 5.39,-1.22 10.78,-1.83 16.22,-1.83 9.44,0 17.83,1.44 25.17,4.33 7.33,2.89 13.5,7.11 18.5,12.67 5,5.56 8.83,12.33 11.44,20.33 2.61,8 3.89,17.17 3.89,27.5 0,36.28 0,72.56 0,108.83 -64.96,0 -41.17,-35.65 -41.17,-108.83 0,-10.89 -2.39,-19.11 -7.17,-24.61 -4.78,-5.5 -11.78,-8.22 -21,-8.22 -4.22,0 -8.11,0.72 -11.72,2.17 -3.61,1.44 -6.78,3.5 -9.5,6.22 -2.72,2.72 -4.89,6.17 -6.44,10.28 -1.56,4.11 -2.33,8.83 -2.33,14.17l0 108.83c-65.16,0 -41.33,-35.41 -41.33,-108.83 0,-11.44 -2.28,-19.78 -6.89,-25 -4.61,-5.22 -11.44,-7.83 -20.44,-7.83 -5.89,0 -11.39,1.44 -16.56,4.39 -5.17,2.94 -10,7 -14.44,12.11l0 125.17c-70.83,0 -41.17,-93.11 -41.17,-171zm470.76 16.12c-3.89,-6.22 -6.78,-12.44 -8.61,-18.67 -1.83,-6.22 -2.72,-12.44 -2.72,-18.67 0,-11.11 2.78,-21.72 8.39,-31.83 5.61,-10.11 13.72,-19.44 24.28,-28l12.83 7.83c1.11,0.67 1.89,1.5 2.33,2.44 0.44,0.94 0.67,1.83 0.67,2.72 0,2.11 -0.72,3.89 -2.17,5.33 -1.44,1.67 -3,3.61 -4.61,5.78 -1.61,2.17 -3.06,4.56 -4.39,7.17 -1.33,2.61 -2.44,5.44 -3.28,8.56 -0.83,3.11 -1.22,6.44 -1.22,10 0,3.78 0.61,7.83 1.83,12.11 1.22,4.28 3.28,8.78 6.17,13.56 1,1.44 1.5,2.94 1.5,4.5 0,3.56 -2.06,6.06 -6.17,7.5 -8.28,3.22 -16.56,6.44 -24.83,9.67zm-152.43 92.43c0,10.39 2.44,18.5 7.28,24.22 4.83,5.72 12.06,8.56 21.72,8.56 7.11,0 13.78,-1.56 20,-4.67 6.22,-3.11 12.11,-7.44 17.67,-12.89 0,-74.73 -25.64,-123.78 41.17,-123.78l0 171 -25.17 0c-5.33,0 -8.83,-2.5 -10.5,-7.5l-2.83 -13.67c-3.56,3.56 -7.22,6.78 -11,9.72 -3.78,2.94 -7.78,5.44 -12.06,7.5 -4.28,2.06 -8.89,3.67 -13.83,4.83 -4.94,1.17 -10.28,1.78 -15.94,1.78 -9.33,0 -17.56,-1.61 -24.72,-4.78 -7.17,-3.17 -13.22,-7.61 -18.11,-13.39 -4.89,-5.78 -8.56,-12.67 -11.06,-20.61 -2.5,-7.94 -3.78,-16.67 -3.78,-26.22l0 -108.67c64.91,0 41.17,35.41 41.17,108.56zm349.83 62.44l-18.5 0c-3.89,0 -6.94,-0.61 -9.17,-1.78 -2.22,-1.17 -3.89,-3.5 -5,-7.06l-3.67 -12.17c-4.33,3.89 -8.56,7.28 -12.72,10.22 -4.17,2.94 -8.5,5.44 -12.94,7.44 -4.44,2 -9.17,3.5 -14.17,4.5 -5,1 -10.56,1.5 -16.67,1.5 -7.22,0 -13.89,-1 -20,-2.94 -6.11,-1.94 -11.33,-4.83 -15.72,-8.78 -4.39,-3.89 -7.83,-8.72 -10.28,-14.56 -2.44,-5.78 -3.67,-12.5 -3.67,-20.22 0,-6.44 1.72,-12.83 5.11,-19.11 3.39,-6.33 9,-12 16.89,-17.06 7.89,-5.11 18.39,-9.33 31.5,-12.67 13.11,-3.33 29.39,-5 48.83,-5l0 -10.06c0,-11.56 -2.39,-20.11 -7.22,-25.61 -4.83,-5.56 -11.89,-8.33 -21.11,-8.33 -6.67,0 -12.22,0.78 -16.67,2.33 -4.44,1.56 -8.28,3.28 -11.56,5.22 -3.28,1.94 -6.33,3.72 -9.11,5.28 -2.78,1.56 -5.83,2.33 -9.17,2.33 -2.78,0 -5.17,-0.72 -7.17,-2.17 -2,-1.44 -3.61,-3.22 -4.83,-5.33l-7.5 -13.17c19.67,-18.11 43.39,-27.17 71.17,-27.17 10,0 18.94,1.67 26.78,4.94 7.83,3.28 14.44,7.83 19.89,13.67 5.44,5.83 9.61,12.83 12.44,20.94 2.83,8.11 4.22,17 4.22,26.67l0 108.11zm-80 -25.67c4.22,0 8.11,-0.39 11.67,-1.17 3.56,-0.78 6.94,-1.94 10.11,-3.5 3.17,-1.56 6.22,-3.5 9.17,-5.78 2.94,-2.28 5.89,-4.94 8.89,-8.06l0 -28.5c-12,0 -22,0.78 -30.06,2.28 -8.06,1.5 -14.56,3.44 -19.44,5.83 -4.89,2.33 -8.33,5.11 -10.39,8.22 -2.06,3.17 -3.11,6.56 -3.11,10.28 0,7.28 2.17,12.56 6.44,15.67 4.28,3.17 9.83,4.72 16.72,4.72zm164.33 -222l0 247.67 -41.17 0 0 -247.67 41.17 0zm90.33 0l0 247.67 -41.17 0c0,-82.56 0,-165.11 0,-247.67l41.17 0zm90.33 76.67l0 171 -41.17 0 0 -171 41.17 0zm6.17 -49.94c0,3.61 -0.72,6.94 -2.17,10.06 -1.44,3.11 -3.33,5.83 -5.72,8.22 -2.39,2.33 -5.22,4.17 -8.44,5.56 -3.22,1.39 -6.67,2.11 -10.33,2.11 -3.56,0 -6.89,-0.72 -10.06,-2.11 -3.17,-1.39 -5.94,-3.22 -8.28,-5.56 -2.33,-2.39 -4.17,-5.11 -5.56,-8.22 -1.39,-3.11 -2.11,-6.44 -2.11,-10.06 0,-3.67 0.72,-7.11 2.11,-10.33 1.39,-3.22 3.22,-6 5.56,-8.39 2.33,-2.33 5.11,-4.17 8.28,-5.56 3.17,-1.39 6.5,-2.11 10.06,-2.11 3.67,0 7.11,0.72 10.33,2.11 3.22,1.39 6.06,3.22 8.44,5.56 2.39,2.39 4.28,5.17 5.72,8.39 1.44,3.22 2.17,6.67 2.17,10.33zm40.33 49.94l25.17 0c5.33,0 8.83,2.5 10.5,7.5l2.67 12.67c3,-3.33 6.17,-6.39 9.44,-9.17 3.28,-2.78 6.78,-5.17 10.5,-7.17 3.72,-2 7.72,-3.61 12,-4.78 4.28,-1.17 8.94,-1.72 14.06,-1.72 10.78,0 19.67,2.89 26.61,8.72 6.94,5.83 12.11,13.61 15.56,23.28 2.67,-5.67 6,-10.56 10,-14.61 4,-4.06 8.39,-7.33 13.17,-9.89 4.78,-2.56 9.89,-4.44 15.28,-5.67 5.39,-1.22 10.78,-1.83 16.22,-1.83 9.44,0 17.83,1.44 25.17,4.33 7.33,2.89 13.5,7.11 18.5,12.67 5,5.56 8.83,12.33 11.44,20.33 2.61,8 3.89,17.17 3.89,27.5l0 108.83c-64.96,0 -41.17,-35.65 -41.17,-108.83 0,-10.89 -2.39,-19.11 -7.17,-24.61 -4.78,-5.5 -11.78,-8.22 -21,-8.22 -4.22,0 -8.11,0.72 -11.72,2.17 -3.61,1.44 -6.78,3.5 -9.5,6.22 -2.72,2.72 -4.89,6.17 -6.44,10.28 -1.56,4.11 -2.33,8.83 -2.33,14.17l0 108.83c-65.16,0 -41.33,-35.41 -41.33,-108.83 0,-11.44 -2.28,-19.78 -6.89,-25 -4.61,-5.22 -11.44,-7.83 -20.44,-7.83 -5.89,0 -11.39,1.44 -16.56,4.39 -5.17,2.94 -10,7 -14.44,12.11l0 125.17c-70.83,0 -41.17,-93.11 -41.17,-171zm324.5 0l0 171 -41.17 0 0 -171 41.17 0zm6.17 -49.94c0,3.61 -0.72,6.94 -2.17,10.06 -1.44,3.11 -3.33,5.83 -5.72,8.22 -2.39,2.33 -5.22,4.17 -8.44,5.56 -3.22,1.39 -6.67,2.11 -10.33,2.11 -3.56,0 -6.89,-0.72 -10.06,-2.11 -3.17,-1.39 -5.94,-3.22 -8.28,-5.56 -2.33,-2.39 -4.17,-5.11 -5.56,-8.22 -1.39,-3.11 -2.11,-6.44 -2.11,-10.06 0,-3.67 0.72,-7.11 2.11,-10.33 1.39,-3.22 3.22,-6 5.56,-8.39 2.33,-2.33 5.11,-4.17 8.28,-5.56 3.17,-1.39 6.5,-2.11 10.06,-2.11 3.67,0 7.11,0.72 10.33,2.11 3.22,1.39 6.06,3.22 8.44,5.56 2.39,2.39 4.28,5.17 5.72,8.39 1.44,3.22 2.17,6.67 2.17,10.33zm40.33 49.94l25.17 0c5.33,0 8.83,2.5 10.5,7.5l2.83 13.5c3.44,-3.56 7.11,-6.78 10.94,-9.67 3.83,-2.89 7.89,-5.39 12.17,-7.5 4.28,-2.11 8.83,-3.72 13.72,-4.83 4.89,-1.11 10.22,-1.67 16,-1.67 9.33,0 17.61,1.56 24.83,4.72 7.22,3.17 13.28,7.61 18.11,13.33 4.83,5.72 8.5,12.56 11,20.5 2.5,7.94 3.72,16.72 3.72,26.28l0 108.83c-64.95,0 -41.17,-35.66 -41.17,-108.83 0,-10.44 -2.39,-18.56 -7.22,-24.28 -4.83,-5.72 -12.11,-8.56 -21.78,-8.56 -7.11,0 -13.78,1.61 -20,4.83 -6.22,3.22 -12.11,7.61 -17.67,13.17l0 123.67c-70.83,0 -41.17,-93.11 -41.17,-171z"></path> </g></svg>
